<svg width="612" height="653" viewBox="0 0 612 653" fill="none" xmlns="http://www.w3.org/2000/svg">
<path d="M354.821 0.804085L364.571 0.514085C369.931 0.354085 426.071 0.134085 489.321 0.0240852C552.571 -0.0859148 606.021 0.154085 611.861 1.30409L611.851 35.3041C611.841 66.4941 611.691 69.4341 610.081 70.8641C609.111 71.7241 605.781 75.3241 602.671 78.8641C599.561 82.4041 595.061 87.6041 592.671 90.4241C590.281 93.2441 580.451 104.534 570.821 115.514C561.201 126.504 550.101 139.274 546.171 143.894C542.607 148.093 533.942 158.257 526.064 167.498L523.671 170.304C515.221 180.204 506.741 190.164 504.821 192.434C502.891 194.714 494.291 204.834 485.691 214.934C477.091 225.044 468.871 234.424 467.411 235.804C465.961 237.174 464.781 238.644 464.791 239.054C464.811 239.464 497.781 239.914 611.321 240.304V317.304L329.321 316.844L317.561 305.074C311.101 298.604 305.831 292.624 305.841 291.804C305.861 290.984 308.911 286.924 312.611 282.804C316.301 278.674 322.031 272.154 325.321 268.304C328.621 264.454 331.811 260.854 332.411 260.304C333.011 259.754 336.731 255.484 340.661 250.804C344.591 246.124 350.961 238.704 354.821 234.304C358.681 229.904 365.071 222.484 369.031 217.804C372.991 213.124 376.491 209.074 376.811 208.804C377.121 208.534 382.091 202.934 387.851 196.364C393.611 189.804 404.171 177.624 411.321 169.304C418.471 160.994 430.091 147.464 437.141 139.244C444.191 131.024 456.191 117.104 463.801 108.304C471.401 99.5041 479.971 89.3741 488.021 79.3041L390.001 78.8041C336.091 78.5341 291.611 77.9741 291.151 77.5741C290.691 77.1741 291.001 76.0641 291.821 75.1041C292.641 74.1341 299.601 65.9141 307.271 56.8241C314.951 47.7441 328.791 31.4141 354.821 0.804085Z" fill="#F83432"/>
<path d="M0.100943 11.3841C-0.0690566 6.47409 0.0109434 1.86409 0.280943 1.13409C0.550943 0.404092 1.79094 -0.135908 5.32094 0.0740918L3.07094 0.444092C0.930943 0.784092 0.810943 1.29409 0.410943 20.3041L0.100943 11.3841Z" fill="#1ABF43"/>
<path d="M287.821 240.554C276.551 240.714 258.321 240.714 247.321 240.554C236.321 240.394 245.551 240.264 267.821 240.264C290.091 240.264 299.091 240.394 287.821 240.554Z" fill="#1ABF43"/>
<path d="M0.560943 309.804C0.360943 312.824 0.190943 310.574 0.190943 304.804C0.190943 299.034 0.360943 296.554 0.560943 299.304C0.760943 302.054 0.760943 306.784 0.560943 309.804Z" fill="#1ABF43"/>
<path d="M337.181 361.644C341.501 356.504 348.101 348.704 351.831 344.304L358.631 336.304H611.821V402.804L592.571 425.134C581.981 437.414 565.901 456.024 556.821 466.484C547.741 476.944 531.321 495.994 520.321 508.804C509.321 521.614 492.351 541.594 482.601 553.204C472.861 564.804 464.871 574.534 464.851 574.804C464.841 575.074 497.781 575.304 611.321 575.304L611.821 652.804H448.321C358.401 652.804 284.821 652.574 284.821 652.304C284.821 652.034 289.431 646.284 295.071 639.544C300.711 632.804 314.401 616.714 325.491 603.794L329.805 598.769C340.833 585.921 355.856 568.42 365.381 557.304C376.231 544.654 398.421 518.794 414.711 499.844C431.001 480.894 451.481 457.044 460.231 446.844C468.981 436.644 478.761 425.384 481.951 421.804C485.151 418.224 487.781 414.964 487.791 414.554C487.811 414.144 444.401 413.804 391.321 413.804C295.151 413.804 294.821 413.794 295.821 411.804C296.371 410.704 300.311 405.684 304.571 400.654C308.831 395.614 316.151 386.884 320.821 381.244C325.491 375.604 332.861 366.784 337.181 361.644Z" fill="#1ABF43"/>
<path d="M0.560943 414.214C0.150943 413.984 -0.0890566 397.044 0.0309434 376.554C0.150943 356.064 0.380943 345.154 0.530943 352.304C0.680943 359.454 0.920943 376.404 1.06094 389.964C1.20094 403.524 0.980943 414.434 0.560943 414.214Z" fill="#1ABF43"/>
<path d="M0.560943 638.304C0.390943 644.904 0.250943 639.054 0.250943 625.304C0.250943 611.554 0.390943 606.154 0.560943 613.304C0.730943 620.454 0.730943 631.704 0.560943 638.304Z" fill="#1ABF43"/>
<path d="M0.820923 0.804113L3.07092 0.414113C4.31092 0.204113 78.0709 0.094113 166.991 0.164113C255.901 0.244113 328.921 0.644113 329.241 1.05411C329.561 1.46411 329.261 2.50411 328.571 3.35411C327.881 4.20411 326.621 5.66411 325.761 6.60411C324.901 7.53411 322.421 10.5441 320.261 13.2741C318.091 16.0041 308.741 27.2541 299.471 38.2741C290.201 49.2941 281.871 59.2041 280.971 60.3141C280.061 61.4141 274.821 67.6341 269.321 74.1341C263.821 80.6341 257.751 87.9141 255.821 90.3141C253.891 92.7141 250.071 97.2941 247.321 100.484C244.571 103.664 235.991 113.704 228.251 122.794C220.521 131.874 213.541 139.974 212.751 140.804C211.961 141.624 208.621 145.674 205.321 149.804C202.021 153.924 197.521 159.374 195.321 161.904C193.121 164.444 187.871 170.514 183.651 175.404C179.441 180.304 171.561 189.504 166.151 195.864C160.751 202.224 154.301 209.854 151.821 212.814C149.341 215.784 145.521 220.304 143.321 222.874C141.121 225.454 137.411 229.864 135.071 232.674C132.731 235.494 130.821 238.254 130.821 238.804C130.821 239.444 139.571 239.804 155.071 239.804C168.411 239.814 210.371 240.094 248.321 240.444C286.271 240.794 317.461 241.134 317.641 241.194C317.811 241.254 317.691 242.204 317.371 243.304C317.061 244.404 314.891 247.344 312.561 249.834C310.231 252.324 303.821 259.684 298.321 266.194C292.821 272.704 286.071 280.694 283.321 283.954C280.571 287.204 273.141 295.914 255.321 316.724L1.32092 316.304L0.870923 259.304L5.56092 253.804C8.15092 250.784 13.8709 244.254 18.2909 239.294C22.7109 234.334 30.1409 225.594 34.8209 219.854C39.5009 214.124 45.5709 206.904 48.3209 203.814C51.0709 200.724 57.1909 193.714 61.9109 188.244C66.6309 182.774 72.9309 175.454 75.9109 171.964C78.8909 168.484 82.8909 163.684 84.8209 161.314C86.7509 158.944 93.9409 150.374 100.821 142.264C107.691 134.154 114.421 126.124 115.771 124.414C117.111 122.704 121.181 117.924 124.811 113.804C128.441 109.674 136.451 100.344 142.621 93.0541C148.781 85.7641 153.821 79.3541 153.821 78.8041C153.821 78.1441 128.151 77.8041 78.8209 77.8041C37.5709 77.8041 3.14092 77.5741 2.32092 77.3041C1.02092 76.8741 0.820923 71.6941 0.820923 0.804113Z" fill="#028FDC"/>
<path d="M0.820923 413.804V375.304V336.804L314.321 336.774L324.321 346.714L321.821 349.674C320.451 351.304 312.571 360.594 304.321 370.314C296.071 380.034 284.821 393.314 279.321 399.824C273.821 406.334 263.491 418.554 256.371 426.984C249.251 435.404 236.881 449.894 228.871 459.184C220.871 468.464 212.971 477.734 211.321 479.794C209.671 481.854 203.221 489.564 196.981 496.924C190.741 504.284 179.041 518.134 170.981 527.694C162.921 537.264 153.621 548.244 150.321 552.084C147.021 555.934 141.321 562.504 137.651 566.694C133.981 570.884 131.171 574.644 131.401 575.054C131.631 575.464 173.891 575.804 225.321 575.804C299.471 575.804 318.811 576.064 318.781 577.054C318.761 577.744 314.811 582.804 309.991 588.304C305.181 593.804 300.211 599.654 298.951 601.304C297.691 602.954 294.781 606.324 292.481 608.804C290.181 611.284 284.251 618.214 279.311 624.204C274.371 630.204 267.671 638.084 264.431 641.704C261.191 645.334 257.931 649.314 255.821 652.804H0.820923V595.804L7.54092 588.054C11.2409 583.794 14.5509 580.074 14.8909 579.804C15.2309 579.534 22.4409 571.194 30.9209 561.284C39.3909 551.374 47.8809 541.254 49.7909 538.784C51.7009 536.324 54.2109 533.404 55.3609 532.304C56.5209 531.204 59.9009 527.384 62.8909 523.824C65.8809 520.264 74.1709 510.584 81.3209 502.324C88.4709 494.054 98.8009 481.894 104.271 475.304C109.751 468.704 116.051 461.274 118.271 458.794C120.501 456.304 124.641 451.584 127.481 448.294C130.311 444.994 136.161 438.254 140.481 433.304C144.791 428.354 149.991 422.284 152.041 419.804C154.081 417.324 155.771 414.964 155.791 414.554C155.811 414.144 120.951 413.804 0.820923 413.804Z" fill="#FCCE0E"/>
</svg>
