<svg width="92" height="92" viewBox="0 0 92 92" fill="none" xmlns="http://www.w3.org/2000/svg">
<path d="M60.1467 32.6244C59.8429 32.4674 59.5472 32.2953 59.2607 32.1088C58.4275 31.5579 57.6636 30.9089 56.9854 30.1756C55.2885 28.2341 54.6548 26.2644 54.4214 24.8853H54.4307C54.2357 23.7406 54.3164 23 54.3285 23H46.5998V52.8856C46.5998 53.2869 46.5998 53.6834 46.5829 54.0753C46.5829 54.1241 46.5782 54.1691 46.5754 54.2216C46.5754 54.2431 46.5754 54.2656 46.5707 54.2881C46.5707 54.2938 46.5707 54.2994 46.5707 54.305C46.4893 55.3773 46.1455 56.4131 45.5698 57.3214C44.994 58.2297 44.2039 58.9825 43.2689 59.5138C42.2944 60.0681 41.1922 60.359 40.071 60.3575C36.4701 60.3575 33.5517 57.4213 33.5517 53.795C33.5517 50.1688 36.4701 47.2325 40.071 47.2325C40.7527 47.2319 41.4301 47.3391 42.0782 47.5503L42.0876 39.6809C40.1201 39.4268 38.1213 39.5832 36.2173 40.1402C34.3133 40.6972 32.5454 41.6427 31.0251 42.9172C29.693 44.0746 28.5731 45.4557 27.7157 46.9981C27.3895 47.5606 26.1585 49.8209 26.0095 53.4894C25.9157 55.5716 26.541 57.7288 26.8392 58.6203V58.6391C27.0267 59.1641 27.7532 60.9556 28.9373 62.4659C29.8921 63.6774 31.0201 64.7417 32.2851 65.6244V65.6056L32.3039 65.6244C36.0454 68.1669 40.1939 68 40.1939 68C40.912 67.9709 43.3176 68 46.0495 66.7053C49.0795 65.27 50.8045 63.1316 50.8045 63.1316C51.9065 61.8538 52.7828 60.3977 53.3957 58.8256C54.0951 56.9872 54.3285 54.7822 54.3285 53.9009V38.0459C54.4223 38.1022 55.671 38.9281 55.671 38.9281C55.671 38.9281 57.4701 40.0813 60.277 40.8322C62.2907 41.3666 65.0039 41.4791 65.0039 41.4791V33.8066C64.0532 33.9097 62.1229 33.6097 60.1467 32.6244Z" fill="white"/>
</svg>
